<?xml version="1.0" encoding="utf-8"?>
<!-- Uploaded to: SVG Repo, www.svgrepo.com, Generator: SVG Repo Mixer Tools -->
<svg width="800px" height="800px" viewBox="0 0 1024 1024" class="icon"  version="1.1" xmlns="http://www.w3.org/2000/svg"><path d="M514.8 128C280.1 128 89.1 275.8 89.1 457.5c0 110.2 67.9 206.5 175.4 266.2l-44.1 136.1c-2.6 8.1 0 16.8 6.6 22.1 3.7 3 8.2 4.6 12.8 4.6 3.5 0 7-0.9 10.2-2.8L428.4 780c27.9 4.5 56.8 6.9 86.4 6.9 234.7 0 425.7-147.8 425.7-329.5S749.5 128 514.8 128z m0 645.3c-30.3 0-59.9-2.6-88.4-7.4l-2.7 1.5-0.2-0.4-180.4 104.9c-3.7 2.2-6.8 0.1-7.7-0.6-0.9-0.7-3.5-3.3-2.2-7.4l48.2-147c-106.7-57.2-178.8-152.5-178.8-259.6 0-174.2 184.9-315.9 412.1-315.9s412.1 141.7 412.1 315.9-184.8 316-412 316z" fill="#93A06E" /><path d="M695.4 386.6v50.1c0 11-9 20-20 20h-6.7v170.4c0 11-9 20-20 20h-283c-11 0-20-9-20-20V456.7H339c-11 0-20-9-20-20v-50.1c0-11 9-20 20-20h63.5c-13.2-7.5-22.1-21.6-22.1-37.8 0-24 19.5-43.6 43.6-43.6 14.7 0 25.2 4.5 35.6 14-2.3-8-2.5-16.7-0.1-25.1 3.2-11.7 10.8-21.6 20.8-27.4 10.1-5.8 21.8-7.4 33.1-4.4 11.2 3 20.6 10.2 26.5 20.3 8.7 15 10 30.6 3.9 48.6 14.7-17.9 26.9-26.1 46.8-26.1 24 0 43.6 19.5 43.6 43.6 0 16.2-8.9 30.3-22.1 37.8h63.5c10.8 0.1 19.8 9.1 19.8 20.1z m-5.7 50.1v-50.1c0-7.9-6.4-14.3-14.3-14.3H534.8V451h140.7c7.8 0 14.2-6.4 14.2-14.3zM663 627.1V456.7H534.7v184.7h113.9c8 0 14.4-6.4 14.4-14.3z m-34.8-298.4c0-20.9-17-37.8-37.8-37.8-21.7 0-33.7 11.4-52.3 36.9l-25.6 38.8h77.9c20.9 0 37.8-17 37.8-37.9z m-99 0.1c14.7-25.6 16.4-44.5 5.6-63.3-5.1-8.8-13.2-15-23-17.6-3.3-0.9-6.6-1.3-9.9-1.3-6.6 0-13 1.7-18.9 5.1-8.7 5-15.3 13.7-18.1 24-2.8 10.3-1.6 21.1 3.3 29.7l38.3 56.9 22.7-33.5z m-0.2 312.6V372.3h-22.3v0.1-0.1h-22.9v269.1H529z m-27.1-274.8l-25.7-38.9c-18.5-25.4-30.4-36.8-52.2-36.8-20.9 0-37.8 17-37.8 37.8 0 20.9 17 37.8 37.8 37.8h77.9zM478 641.4V456.7H351.4v170.4c0 7.9 6.4 14.3 14.3 14.3H478z m0-190.4v-78.7H339c-7.9 0-14.3 6.4-14.3 14.3v50.1c0 7.9 6.4 14.3 14.3 14.3h139z" fill="#EF4668" /><path d="M689.7 386.6v50.1c0 7.9-6.4 14.3-14.3 14.3H534.7v-78.7h140.6c8 0 14.4 6.4 14.4 14.3z" fill="#FFF0C2" /><path d="M663 456.7v170.4c0 7.9-6.4 14.3-14.3 14.3h-114V456.7H663z" fill="#FFE085" /><path d="M590.4 290.9c20.9 0 37.8 17 37.8 37.8 0 20.9-17 37.8-37.8 37.8h-77.9l25.6-38.8c18.6-25.4 30.5-36.8 52.3-36.8zM534.8 265.5c10.8 18.8 9.1 37.7-5.6 63.3l-22.5 33.3-38.3-56.9c-5-8.6-6.2-19.4-3.3-29.7 2.8-10.2 9.4-19 18.1-24 5.8-3.4 12.3-5.1 18.9-5.1 3.3 0 6.6 0.4 9.9 1.3 9.6 2.8 17.7 9 22.8 17.8zM529 486.3v155.1h-45.3V372.3h22.9v0.1l0.1-0.1H529v84.4zM476.2 327.7l25.7 38.9H424c-20.9 0-37.8-17-37.8-37.8 0-20.9 17-37.8 37.8-37.8 21.7-0.1 33.7 11.3 52.2 36.7z" fill="#F59A9B" /><path d="M478 456.7v184.7H365.7c-7.9 0-14.3-6.4-14.3-14.3V456.7H478z" fill="#FFE085" /><path d="M478 372.3V451H339c-7.9 0-14.3-6.4-14.3-14.3v-50.1c0-7.9 6.4-14.3 14.3-14.3h139z" fill="#FFF0C2" /></svg>